<svg width="97" height="36" viewBox="0 0 97 36" fill="none" xmlns="http://www.w3.org/2000/svg">
<path d="M29.1046 35.136H25.9648V25.7376H29.1046V35.136Z" fill="#4E4E56"/>
<path d="M35.3625 35.136H32.2227V25.7376H35.3625V35.136Z" fill="#4E4E56"/>
<path d="M16.4367 22.6157H13.2969V13.2173H16.4367V22.6157Z" fill="#4E4E56"/>
<path d="M22.6945 22.6157H19.5547V13.2173H22.6945V22.6157Z" fill="#4E4E56"/>
<path d="M3.78288 10.0774H0.643066V0.678978H3.78288V10.0774Z" fill="#4E4E56"/>
<path d="M10.0441 10.0774H6.9043V0.678978H10.0441V10.0774Z" fill="#4E4E56"/>
<path d="M5.32553 25.3093C2.50151 25.3093 0.200195 27.6108 0.200195 30.4387C0.200195 33.2666 2.50151 35.5645 5.32553 35.5645C8.14954 35.5645 10.4509 33.263 10.4509 30.4387C10.469 27.6108 8.16769 25.3093 5.32553 25.3093ZM5.32553 32.7221C4.07686 32.7221 3.04236 31.702 3.04236 30.4387C3.04236 29.1899 4.06234 28.1554 5.32553 28.1554C6.57419 28.1554 7.60869 29.1754 7.60869 30.4387C7.60869 31.702 6.59234 32.7221 5.32553 32.7221Z" fill="#4E4E56"/>
<path d="M30.662 12.7744C27.8343 12.7744 25.5366 15.0759 25.5366 17.9001C25.5366 20.7244 27.8379 23.0259 30.662 23.0259C33.486 23.0259 35.7873 20.7244 35.7873 17.9001C35.7873 15.0759 33.4896 12.7744 30.662 12.7744ZM30.662 20.1835C29.4133 20.1835 28.3788 19.1634 28.3788 17.9001C28.3788 16.6514 29.3988 15.6168 30.662 15.6168C31.9106 15.6168 32.9451 16.6368 32.9451 17.9001C32.9306 19.1634 31.9106 20.1835 30.662 20.1835Z" fill="#4E4E56"/>
<path d="M35.3625 3.81885H25.9648V0.678791H35.3625V3.81885Z" fill="#4E4E56"/>
<path d="M35.3625 10.0774H25.9648V6.93733H35.3625V10.0774Z" fill="#4E4E56"/>
<path d="M10.0407 16.3538H0.643066V13.2137H10.0407V16.3538Z" fill="#4E4E56"/>
<path d="M10.0407 22.6157H0.643066V19.4757H10.0407V22.6157Z" fill="#4E4E56"/>
<path d="M50.6256 13.1775V16.4628H47.3406V13.1775H44.4331V22.5759H47.3406V18.993H50.6256V22.5759H53.5186V13.1775H50.6256Z" fill="#4E4E56"/>
<path d="M64.9383 15.4137V13.1775H57.3955V22.5759H64.9383V20.3252H60.2232V18.9276H64.9383V16.6951H60.2232V15.4137H64.9383Z" fill="#4E4E56"/>
<path d="M76.8186 13.1775H67.813V15.5915H70.8838V22.5759H73.7623V15.5915H76.8186V13.1775Z" fill="#4E4E56"/>
<path d="M82.931 13.1919H80.0381V22.5903H82.931V13.1919Z" fill="#4E4E56"/>
<path d="M93.2472 18.9131C92.9024 19.7517 92.1292 20.2454 91.1782 20.2454C89.8787 20.2454 88.9095 19.3596 88.9095 17.8967C88.9095 16.4337 89.8787 15.548 91.1782 15.548C92.1473 15.548 92.9205 16.0417 93.2472 16.8948H96.122C95.661 14.5933 93.6392 12.9851 91.16 12.9851C88.3324 12.9851 86.0674 15.0724 86.0674 17.8967C86.0674 20.7209 88.3179 22.8082 91.16 22.8082C93.6428 22.8082 95.6465 21.1965 96.122 18.8986L93.2472 18.9131Z" fill="#4E4E56"/>
</svg>
