<svg width="47" height="49" viewBox="0 0 47 49" fill="none" xmlns="http://www.w3.org/2000/svg">
<path d="M10.0215 41.8611C15.339 45.7793 26.907 50.9103 37.1689 41.8611" stroke="#D0D0D0" stroke-width="2"/>
<ellipse cx="15.6189" cy="30.573" rx="1.86581" ry="2.70542" fill="#D0D0D0"/>
<ellipse cx="31.6648" cy="30.573" rx="1.86581" ry="2.70542" fill="#D0D0D0"/>
<path d="M16.1786 37.1966C19.4127 39.56 25.1345 43.3538 31.4782 37.1966" stroke="#D0D0D0" stroke-width="2" stroke-linecap="round" stroke-linejoin="round"/>
<path d="M27.0003 22.4568C31.4782 22.4568 32.8465 16.2374 32.9709 13.1277C34.2147 14.496 36.3506 17.8444 37.4488 22.4568C38.8481 28.334 37.2622 40.3063 36.3293 47.272L43.2328 45.033C44.6632 41.9233 46.9644 36.0771 45.5651 20.4044C44.3489 6.784 31.8514 1 24.015 1C2.9314 1.74632 1.74537 19.3195 1.43876 20.4044C0.225981 24.6957 1.68753 38.8759 3.86431 45.033L11.1409 47.272C9.52391 41.488 8.34224 30.7783 9.83488 23.7628C11.3275 16.7474 14.686 13.3143 17.6713 13.1277C17.3727 16.2623 13.1933 20.6532 11.1409 22.4568H16.7384C19.7236 22.4568 22.8333 16.2374 24.015 13.1277C24.7613 15.6652 21.3407 20.4044 19.5371 22.4568H27.0003Z" stroke="#D0D0D0" stroke-width="2" stroke-linecap="round" stroke-linejoin="round"/>
<path d="M28.6795 3.892L32.9709 7.7169L32.1313 9.48941L27.0003 8.92967L28.6795 3.892Z" stroke="#D0D0D0" stroke-width="2" stroke-linecap="round" stroke-linejoin="round"/>
<path d="M35.9562 9.30284L32.9709 7.62361L32.2245 9.30284L34.5568 11.1686L35.9562 9.30284Z" stroke="#D0D0D0" stroke-width="2"/>
<path d="M41.2494 11.2908L35.8302 9.37309L34.6815 10.9628L37.644 15.1893L41.2494 11.2908Z" stroke="#D0D0D0" stroke-width="2" stroke-linecap="round" stroke-linejoin="round"/>
<path d="M14.8725 30.0133L12.7269 28.7072" stroke="#D0D0D0" stroke-width="2" stroke-linecap="round" stroke-linejoin="round"/>
<path d="M32.2245 30.1998L34.3702 28.8938" stroke="#D0D0D0" stroke-width="2" stroke-linecap="round" stroke-linejoin="round"/>
</svg>
